<svg width="45" height="46" viewBox="0 0 45 46" fill="none" xmlns="http://www.w3.org/2000/svg">
<path d="M9.84375 21.5625H37.9688C38.3417 21.5625 38.6994 21.714 38.9631 21.9835C39.2268 22.2531 39.375 22.6188 39.375 23C39.375 23.3812 39.2268 23.7469 38.9631 24.0165C38.6994 24.2861 38.3417 24.4375 37.9688 24.4375H9.84375C9.47079 24.4375 9.1131 24.2861 8.84938 24.0165C8.58566 23.7469 8.4375 23.3812 8.4375 23C8.4375 22.6188 8.58566 22.2531 8.84938 21.9835C9.1131 21.714 9.47079 21.5625 9.84375 21.5625Z" fill="#FAF3EE"/>
<path d="M10.4259 23.0001L22.0894 34.9199C22.3534 35.1898 22.5018 35.5559 22.5018 35.9376C22.5018 36.3193 22.3534 36.6854 22.0894 36.9554C21.8253 37.2253 21.4672 37.3769 21.0938 37.3769C20.7203 37.3769 20.3622 37.2253 20.0981 36.9554L7.44189 24.0179C7.31093 23.8843 7.20703 23.7257 7.13613 23.5511C7.06524 23.3764 7.02875 23.1892 7.02875 23.0001C7.02875 22.811 7.06524 22.6238 7.13613 22.4492C7.20703 22.2745 7.31093 22.1159 7.44189 21.9824L20.0981 9.04486C20.3622 8.77493 20.7203 8.62329 21.0938 8.62329C21.4672 8.62329 21.8253 8.77493 22.0894 9.04486C22.3534 9.31478 22.5018 9.68088 22.5018 10.0626C22.5018 10.4443 22.3534 10.8104 22.0894 11.0804L10.4259 23.0001Z" fill="#FAF3EE"/>
</svg>
